X Lossless Decoder version 20110417 (131.0)

XLD extraction logfile from 2011-04-19 23:40:11 +0900

tamatomika / switch on

Used drive : MATSHITA DVD-R   UJ-868 (revision KB19)

Ripper mode             : CDParanoia III 10.2
Disable audio cache     : OK for the drive with a cache less than 2750KiB
Make use of C2 pointers : NO
Read offset correction  : 102
Max retry count         : 100
Gap status              : Analyzed, Appended

TOC of the extracted CD
     Track |   Start  |  Length  | Start sector | End sector 
    ---------------------------------------------------------
        1  | 00:00:00 | 03:30:35 |         0    |    15784   
        2  | 03:30:35 | 04:44:25 |     15785    |    37109   
        3  | 08:14:60 | 04:10:20 |     37110    |    55879   

AccurateRip Summary
    Track 01 : OK (confidence 2)
    Track 02 : OK (confidence 2)
    Track 03 : OK (confidence 2)
        ->All tracks accurately ripped.

All Tracks
    Filename : /Users/m4c/Public/flac/switch on.flac
    CRC32 hash             : 08628288
    CRC32 hash (skip zero) : 800B1972
    Statistics
        Read error                           : 0
        Skipped (treated as error)           : 0
        Edge jitter error (maybe fixed)      : 0
        Atom jitter error (maybe fixed)      : 0
        Drift error (maybe fixed)            : 0
        Dropped bytes error (maybe fixed)    : 0
        Duplicated bytes error (maybe fixed) : 0

Track 01
    Pre-gap length : 00:02:00

    CRC32 hash             : 1CD265A9
    CRC32 hash (skip zero) : D0033D0B
    AccurateRip signature  : 6F3F0E8F
        ->Accurately ripped! (confidence 2)
    Statistics
        Read error                           : 0
        Skipped (treated as error)           : 0
        Edge jitter error (maybe fixed)      : 0
        Atom jitter error (maybe fixed)      : 0
        Drift error (maybe fixed)            : 0
        Dropped bytes error (maybe fixed)    : 0
        Duplicated bytes error (maybe fixed) : 0

Track 02

    CRC32 hash             : B7490C03
    CRC32 hash (skip zero) : 9FA0F82C
    AccurateRip signature  : D103C91D
        ->Accurately ripped! (confidence 2)
    Statistics
        Read error                           : 0
        Skipped (treated as error)           : 0
        Edge jitter error (maybe fixed)      : 0
        Atom jitter error (maybe fixed)      : 0
        Drift error (maybe fixed)            : 0
        Dropped bytes error (maybe fixed)    : 0
        Duplicated bytes error (maybe fixed) : 0

Track 03
    Pre-gap length : 00:01:40

    CRC32 hash             : 1F079391
    CRC32 hash (skip zero) : 95F39AD4
    AccurateRip signature  : 18C0B287
        ->Accurately ripped! (confidence 2)
    Statistics
        Read error                           : 0
        Skipped (treated as error)           : 0
        Edge jitter error (maybe fixed)      : 0
        Atom jitter error (maybe fixed)      : 0
        Drift error (maybe fixed)            : 0
        Dropped bytes error (maybe fixed)    : 0
        Duplicated bytes error (maybe fixed) : 0

No errors occurred

End of status report
